<?xml version="1.0" encoding="UTF-8" standalone="no"?>
<!DOCTYPE svg PUBLIC "-//W3C//DTD SVG 1.1//EN" "http://www.w3.org/Graphics/SVG/1.1/DTD/svg11.dtd">
<svg version="1.1" xmlns="http://www.w3.org/2000/svg" xmlns:xlink="http://www.w3.org/1999/xlink" preserveAspectRatio="xMidYMid meet" viewBox="0 0 640 330" width="640" height="330"><defs><path d="M640 0.19C640 0.19 640 0.19 640 0.19C640 198.08 640 308.01 640 330C640 330 640 330 640 330C256.35 330 43.21 330 0.59 330C0.59 330 0.59 330 0.59 330C0.59 132.11 0.59 22.18 0.59 0.19C0.59 0.19 0.59 0.19 0.59 0.19C384.23 0.19 597.37 0.19 640 0.19Z" id="c1DWGGVHcM"></path><path d="M228.03 283.43L319.12 283.43L319.12 45.88L228.03 199.22L228.03 283.43Z" id="m1g5UeULJ5"></path><path d="M263.47 45.73L136.49 45.73L199.91 151.33L263.47 45.73Z" id="a521RiAdlG"></path><path d="M479.19 45.88C479.19 45.88 479.19 45.88 479.19 45.88C479.19 102.12 479.19 133.36 479.19 139.61C479.19 139.61 479.19 139.61 479.19 139.61C414.43 139.61 378.45 139.61 371.26 139.61C371.26 139.61 371.26 139.61 371.26 139.61C371.26 83.37 371.26 52.13 371.26 45.88C371.26 45.88 371.26 45.88 371.26 45.88C436.02 45.88 472 45.88 479.19 45.88Z" id="amYjGSKpf"></path><path d="M479.19 186.04C479.19 186.04 479.19 186.04 479.19 186.04C479.19 244.47 479.19 276.94 479.19 283.43C479.19 283.43 479.19 283.43 479.19 283.43C414.43 283.43 378.45 283.43 371.26 283.43C371.26 283.43 371.26 283.43 371.26 283.43C371.26 224.99 371.26 192.53 371.26 186.04C371.26 186.04 371.26 186.04 371.26 186.04C436.02 186.04 472 186.04 479.19 186.04Z" id="c1r2lqyqIM"></path><path d="M534.11 283.43L589.18 283.43L589.18 46.17L534.11 45.88L534.11 283.43Z" id="d3l4EP16OG"></path><path d="M170.03 283.43L50.53 283.43L50.53 45.88L78.06 46.17L170.03 198.63L170.03 283.43Z" id="a7HAs9stF"></path></defs><g><g><g><use xlink:href="#c1DWGGVHcM" opacity="1" fill="#ffffff" fill-opacity="1"></use><g><use xlink:href="#c1DWGGVHcM" opacity="1" fill-opacity="0" stroke="#000000" stroke-width="1" stroke-opacity="0"></use></g></g><g><use xlink:href="#m1g5UeULJ5" opacity="1" fill="#607d8b" fill-opacity="1"></use><g><use xlink:href="#m1g5UeULJ5" opacity="1" fill-opacity="0" stroke="#000000" stroke-width="1" stroke-opacity="0"></use></g></g><g><use xlink:href="#a521RiAdlG" opacity="1" fill="#607d8b" fill-opacity="1"></use><g><use xlink:href="#a521RiAdlG" opacity="1" fill-opacity="0" stroke="#000000" stroke-width="1" stroke-opacity="0"></use></g></g><g><use xlink:href="#amYjGSKpf" opacity="1" fill="#607d8b" fill-opacity="1"></use><g><use xlink:href="#amYjGSKpf" opacity="1" fill-opacity="0" stroke="#000000" stroke-width="1" stroke-opacity="0"></use></g></g><g><use xlink:href="#c1r2lqyqIM" opacity="1" fill="#607d8b" fill-opacity="1"></use><g><use xlink:href="#c1r2lqyqIM" opacity="1" fill-opacity="0" stroke="#000000" stroke-width="1" stroke-opacity="0"></use></g></g><g><use xlink:href="#d3l4EP16OG" opacity="1" fill="#607d8b" fill-opacity="1"></use><g><use xlink:href="#d3l4EP16OG" opacity="1" fill-opacity="0" stroke="#000000" stroke-width="1" stroke-opacity="0"></use></g></g><g><use xlink:href="#a7HAs9stF" opacity="1" fill="#607d8b" fill-opacity="1"></use><g><use xlink:href="#a7HAs9stF" opacity="1" fill-opacity="0" stroke="#000000" stroke-width="1" stroke-opacity="0"></use></g></g></g></g></svg>