<?xml version="1.0" encoding="UTF-8" standalone="no"?>
<!DOCTYPE svg PUBLIC "-//W3C//DTD SVG 1.1//EN" "http://www.w3.org/Graphics/SVG/1.1/DTD/svg11.dtd">
<svg version="1.1" xmlns="http://www.w3.org/2000/svg" xmlns:xlink="http://www.w3.org/1999/xlink" preserveAspectRatio="xMidYMid meet" viewBox="0 0 48 48" width="48" height="48"><defs><path d="M36 18C37.1 18 38 17.1 38 16C38 14.9 37.1 14 36 14C33.6 14 14.4 14 12 14C10.9 14 10 14.9 10 16C10 17.1 10.9 18 12 18C16.8 18 33.6 18 36 18ZM12 22C10.9 22 10 22.9 10 24C10 25.1 10.9 26 12 26C14.4 26 33.6 26 36 26C37.1 26 38 25.1 38 24C38 22.9 37.1 22 36 22C31.2 22 14.4 22 12 22ZM12 30C10.9 30 10 30.9 10 32C10 33.1 10.9 34 12 34C14.4 34 33.6 34 36 34C37.1 34 38 33.1 38 32C38 30.9 37.1 30 36 30C31.2 30 14.4 30 12 30Z" id="b5Ab9HZPOG"></path></defs><g><g><g><use xlink:href="#b5Ab9HZPOG" opacity="1" fill="#ffffff" fill-opacity="1"></use><g><use xlink:href="#b5Ab9HZPOG" opacity="1" fill-opacity="0" stroke="#000000" stroke-width="1" stroke-opacity="0"></use></g></g></g></g></svg>