<?xml version="1.0" encoding="UTF-8" standalone="no"?>
<!DOCTYPE svg PUBLIC "-//W3C//DTD SVG 1.1//EN" "http://www.w3.org/Graphics/SVG/1.1/DTD/svg11.dtd">
<svg version="1.1" xmlns="http://www.w3.org/2000/svg" xmlns:xlink="http://www.w3.org/1999/xlink" preserveAspectRatio="xMidYMid meet" viewBox="0 0 640 330" width="640" height="330"><defs><path d="M228.03 283.43L319.12 283.43L319.12 45.88L228.03 199.22L228.03 283.43Z" id="a2y11gFhLX"></path><path d="M263.47 45.73L136.49 45.73L199.91 151.33L263.47 45.73Z" id="bsRCqnfcK"></path><path d="M479.19 45.88C479.19 45.88 479.19 45.88 479.19 45.88C479.19 102.12 479.19 133.36 479.19 139.61C479.19 139.61 479.19 139.61 479.19 139.61C414.43 139.61 378.45 139.61 371.26 139.61C371.26 139.61 371.26 139.61 371.26 139.61C371.26 83.37 371.26 52.13 371.26 45.88C371.26 45.88 371.26 45.88 371.26 45.88C436.02 45.88 472 45.88 479.19 45.88Z" id="boUdtu1g"></path><path d="M479.19 186.04C479.19 186.04 479.19 186.04 479.19 186.04C479.19 244.47 479.19 276.94 479.19 283.43C479.19 283.43 479.19 283.43 479.19 283.43C414.43 283.43 378.45 283.43 371.26 283.43C371.26 283.43 371.26 283.43 371.26 283.43C371.26 224.99 371.26 192.53 371.26 186.04C371.26 186.04 371.26 186.04 371.26 186.04C436.02 186.04 472 186.04 479.19 186.04Z" id="baVQPb84q"></path><path d="M534.11 283.43L589.18 283.43L589.18 46.17L534.11 45.88L534.11 283.43Z" id="hCeWsU4Lb"></path><path d="M170.03 283.43L50.53 283.43L50.53 45.88L78.06 46.17L170.03 198.63L170.03 283.43Z" id="b5mwbJMdJj"></path></defs><g><g><g><use xlink:href="#a2y11gFhLX" opacity="1" fill="#3a4b53" fill-opacity="1"></use><g><use xlink:href="#a2y11gFhLX" opacity="1" fill-opacity="0" stroke="#000000" stroke-width="1" stroke-opacity="0"></use></g></g><g><use xlink:href="#bsRCqnfcK" opacity="1" fill="#3a4b53" fill-opacity="1"></use><g><use xlink:href="#bsRCqnfcK" opacity="1" fill-opacity="0" stroke="#000000" stroke-width="1" stroke-opacity="0"></use></g></g><g><use xlink:href="#boUdtu1g" opacity="1" fill="#3a4b53" fill-opacity="1"></use><g><use xlink:href="#boUdtu1g" opacity="1" fill-opacity="0" stroke="#000000" stroke-width="1" stroke-opacity="0"></use></g></g><g><use xlink:href="#baVQPb84q" opacity="1" fill="#3a4b53" fill-opacity="1"></use><g><use xlink:href="#baVQPb84q" opacity="1" fill-opacity="0" stroke="#000000" stroke-width="1" stroke-opacity="0"></use></g></g><g><use xlink:href="#hCeWsU4Lb" opacity="1" fill="#3a4b53" fill-opacity="1"></use><g><use xlink:href="#hCeWsU4Lb" opacity="1" fill-opacity="0" stroke="#000000" stroke-width="1" stroke-opacity="0"></use></g></g><g><use xlink:href="#b5mwbJMdJj" opacity="1" fill="#3a4b53" fill-opacity="1"></use><g><use xlink:href="#b5mwbJMdJj" opacity="1" fill-opacity="0" stroke="#000000" stroke-width="1" stroke-opacity="0"></use></g></g></g></g></svg>